HIERARCHY
ROOT Pelvis
{
	OFFSET 0.000000 0.941512 0.000000
	CHANNELS 6 Xposition Yposition Zposition Zrotation Yrotation Xrotation 
	JOINT Pelvis_L_Hip
	{
		OFFSET 0.000000 0.000000 0.000000
		CHANNELS 3 Zrotation Yrotation Xrotation
		JOINT L_Hip
		{
			OFFSET 0.062321 -0.080322 -0.016990
			CHANNELS 3 Zrotation Yrotation Xrotation
			JOINT L_Knee
			{
				OFFSET 0.093051 -0.381305 -0.029784
				CHANNELS 3 Zrotation Yrotation Xrotation
				JOINT L_Ankle
				{
					OFFSET -0.010371 -0.431000 -0.033614
					CHANNELS 3 Zrotation Yrotation Xrotation
					End Site #name: L_Foot
					{
						OFFSET 0.069299 -0.038670 0.119418
					}
				}
			}
		}
	}
	JOINT Pelvis_R_Hip
	{
		OFFSET 0.000000 0.000000 0.000000
		CHANNELS 3 Zrotation Yrotation Xrotation
		JOINT R_Hip
		{
			OFFSET -0.055334 -0.094904 -0.002373
			CHANNELS 3 Zrotation Yrotation Xrotation
			JOINT R_Knee
			{
				OFFSET -0.064207 -0.384370 -0.019592
				CHANNELS 3 Zrotation Yrotation Xrotation
				JOINT R_Ankle
				{
					OFFSET 0.025418 -0.419734 -0.065953
					CHANNELS 3 Zrotation Yrotation Xrotation
					End Site #name: R_Foot
					{
						OFFSET -0.057233 -0.039888 0.132134
					}
				}
			}
		}
	}
	JOINT Pelvis_Spine1
	{
		OFFSET 0.000000 0.000000 0.000000
		CHANNELS 3 Zrotation Yrotation Xrotation
		JOINT Spine1
		{
			OFFSET -0.005562 0.124093 -0.043360
			CHANNELS 3 Zrotation Yrotation Xrotation
			JOINT Spine2
			{
				OFFSET 0.012244 0.139499 0.029894
				CHANNELS 3 Zrotation Yrotation Xrotation
				JOINT Spine3
				{
					OFFSET -0.002556 0.056561 0.009225
					CHANNELS 3 Zrotation Yrotation Xrotation
					JOINT Spine3_Neck
					{
						OFFSET 0.000000 0.000000 0.000000
						CHANNELS 3 Zrotation Yrotation Xrotation
						JOINT Neck
						{
							OFFSET -0.005205 0.217920 -0.024551
							CHANNELS 3 Zrotation Yrotation Xrotation
							End Site #name: Head
							{
								OFFSET 0.002365 0.091850 0.046637
							}
						}
					}
					JOINT Spine3_L_Collar
					{
						OFFSET 0.000000 0.000000 0.000000
						CHANNELS 3 Zrotation Yrotation Xrotation
						JOINT L_Collar
						{
							OFFSET 0.072225 0.116603 -0.009480
							CHANNELS 3 Zrotation Yrotation Xrotation
							JOINT L_Shoulder
							{
								OFFSET 0.115937 -0.058643 -0.021018
								CHANNELS 3 Zrotation Yrotation Xrotation
								JOINT L_Elbow
								{
									OFFSET 0.021994 -0.254722 -0.024492
									CHANNELS 3 Zrotation Yrotation Xrotation
									End Site #name: L_Wrist
									{
										OFFSET 0.048810 -0.240214 0.103329
									}
								}
							}
						}
					}
					JOINT Spine3_R_Collar
					{
						OFFSET 0.000000 0.000000 0.000000
						CHANNELS 3 Zrotation Yrotation Xrotation
						JOINT R_Collar
						{
							OFFSET -0.073372 0.120704 -0.024611
							CHANNELS 3 Zrotation Yrotation Xrotation
							JOINT R_Shoulder
							{
								OFFSET -0.108089 -0.054969 -0.020504
								CHANNELS 3 Zrotation Yrotation Xrotation
								JOINT R_Elbow
								{
									OFFSET -0.033684 -0.260739 0.009889
									CHANNELS 3 Zrotation Yrotation Xrotation
									End Site #name: R_Wrist
									{
										OFFSET -0.067980 -0.232763 0.118463
									}
								}
							}
						}
					}
				}
			}
		}
	}
}
MOTION
Frames: 16
Frame Time: 0.041667
0.000000 0.949301 0.000000 -6.367546 -1.911312 9.721426 0.000000 0.000000 0.000000 1.021313 -1.708458 -6.993102 12.232812 -0.462433 -3.818057 -4.453631 -6.723615 3.860253 0.000000 0.000000 0.000000 4.814792 1.619126 -9.221764 -6.736870 0.783354 -2.247102 5.807283 10.581216 5.134673 0.000000 0.000000 0.000000 4.567493 1.316758 -18.408448 -2.647952 3.207198 34.216383 3.131945 2.273792 -38.164955 0.000000 0.000000 0.000000 7.713486 -6.673333 27.165880 0.000000 0.000000 0.000000 24.668459 -6.339179 -0.307992 -22.981730 0.647652 -0.596551 -4.229423 0.829889 10.958143 0.000000 0.000000 0.000000 -22.031594 4.469933 1.147000 19.338144 0.757433 3.780175 4.426060 -1.753417 12.138171 
-0.000050 0.949262 -0.000037 -6.385528 -1.932956 9.711825 0.000000 0.000000 0.000000 1.053283 -1.703269 -6.966208 12.211398 -0.459180 -3.836050 -4.436058 -6.714206 3.837635 0.000000 0.000000 0.000000 4.822342 1.617798 -9.214962 -6.715069 0.780036 -2.249104 5.808093 10.586613 5.131824 0.000000 0.000000 0.000000 4.542933 1.319935 -18.419276 -2.635006 3.202484 34.214973 3.140657 2.282598 -38.218259 0.000000 0.000000 0.000000 7.739036 -6.688604 27.150965 0.000000 0.000000 0.000000 24.695946 -6.381396 -0.339767 -23.004660 0.673362 -0.506437 -4.199554 0.847553 10.992333 0.000000 0.000000 0.000000 -22.020695 4.501420 1.120587 19.346654 0.744234 3.828513 4.389055 -1.765754 12.132159 
-0.000091 0.949187 -0.000151 -6.364175 -1.933206 9.668381 0.000000 0.000000 0.000000 1.031907 -1.700901 -6.958537 12.209667 -0.467162 -3.775766 -4.425988 -6.725747 3.815015 0.000000 0.000000 0.000000 4.811773 1.609357 -9.174709 -6.731527 0.780869 -2.260324 5.819101 10.585172 5.153094 0.000000 0.000000 0.000000 4.498030 1.325707 -18.438925 -2.594535 3.182776 34.228858 3.122383 2.193706 -38.137078 0.000000 0.000000 0.000000 7.768276 -6.703191 27.157571 0.000000 0.000000 0.000000 24.748023 -6.390330 -0.348626 -23.041109 0.672053 -0.526048 -4.175621 0.869831 11.057550 0.000000 0.000000 0.000000 -21.940943 4.497607 1.117361 19.284072 0.786089 3.672773 4.429880 -1.771409 12.201040 
-0.000161 0.949102 -0.000290 -6.354613 -1.914033 9.654863 0.000000 0.000000 0.000000 1.035826 -1.708354 -6.990882 12.197323 -0.474027 -3.718978 -4.423880 -6.734891 3.805625 0.000000 0.000000 0.000000 4.805352 1.608131 -9.168610 -6.735522 0.782065 -2.256701 5.808942 10.597202 5.128508 0.000000 0.000000 0.000000 4.532472 1.315912 -18.381040 -2.643261 3.197936 34.152635 3.109157 2.219569 -38.133759 0.000000 0.000000 0.000000 7.815656 -6.737122 27.099129 0.000000 0.000000 0.000000 24.677131 -6.336003 -0.309615 -22.968647 0.685785 -0.475029 -4.218369 0.822718 10.913437 0.000000 0.000000 0.000000 -21.990519 4.411938 1.188888 19.345292 0.797867 3.649712 4.464267 -1.728310 12.105522 
-0.000307 0.949065 -0.000445 -6.348566 -1.916526 9.651449 0.000000 0.000000 0.000000 1.039584 -1.708075 -6.989152 12.195964 -0.472682 -3.730471 -4.438827 -6.763858 3.814822 0.000000 0.000000 0.000000 4.800053 1.610380 -9.179403 -6.729259 0.781123 -2.257131 5.815494 10.605892 5.135486 0.000000 0.000000 0.000000 4.505722 1.329618 -18.472305 -2.583822 3.178687 34.260780 3.059914 2.185334 -38.166100 0.000000 0.000000 0.000000 7.818651 -6.743919 27.142867 0.000000 0.000000 0.000000 24.672573 -6.343430 -0.318252 -23.003087 0.692741 -0.450922 -4.174197 0.835225 10.904920 0.000000 0.000000 0.000000 -21.980266 4.486795 1.129690 19.350543 0.794700 3.667137 4.453525 -1.734470 12.111112 
-0.000517 0.949011 -0.000747 -6.368234 -1.908025 9.669922 0.000000 0.000000 0.000000 1.099108 -1.727268 -7.066264 12.163238 -0.479681 -3.665911 -4.427671 -6.765319 3.795637 0.000000 0.000000 0.000000 4.834006 1.620533 -9.225137 -6.726534 0.783464 -2.235591 5.796603 10.591741 5.109171 0.000000 0.000000 0.000000 4.511793 1.329178 -18.472295 -2.564078 3.164668 34.222090 3.054115 2.186334 -38.160969 0.000000 0.000000 0.000000 7.763512 -6.704949 27.157517 0.000000 0.000000 0.000000 24.647188 -6.311013 -0.294654 -23.068527 0.677299 -0.509008 -4.074254 0.890450 11.007478 0.000000 0.000000 0.000000 -21.971115 4.490939 1.123187 19.326934 0.797340 3.650472 4.451077 -1.746369 12.146000 
-0.000732 0.949156 -0.000954 -6.310425 -1.901592 9.748025 0.000000 0.000000 0.000000 1.047910 -1.756820 -7.202101 12.170025 -0.489696 -3.594065 -4.435056 -6.734443 3.824530 0.000000 0.000000 0.000000 4.800206 1.641966 -9.330546 -6.752999 0.788799 -2.222203 5.799949 10.588586 5.117725 0.000000 0.000000 0.000000 4.665118 1.281354 -18.192446 -2.859811 3.286726 33.952294 3.047897 2.254527 -38.396801 0.000000 0.000000 0.000000 7.843340 -6.744830 26.987728 0.000000 0.000000 0.000000 24.712596 -6.051875 -0.060945 -23.011838 0.655258 -0.544778 -4.238003 0.843570 11.029075 0.000000 0.000000 0.000000 -21.910977 4.154140 1.365666 19.342956 0.796930 3.681484 4.480100 -1.714474 12.079212 
-0.000873 0.949008 -0.001012 -6.341909 -1.899070 9.628178 0.000000 0.000000 0.000000 1.080398 -1.723774 -7.053219 12.190700 -0.484032 -3.643522 -4.433388 -6.792456 3.790192 0.000000 0.000000 0.000000 4.826996 1.613862 -9.193000 -6.720831 0.782366 -2.237272 5.785278 10.618465 5.072632 0.000000 0.000000 0.000000 4.569106 1.322974 -18.452821 -2.640427 3.207758 34.283760 3.075728 2.257996 -38.218868 0.000000 0.000000 0.000000 7.773238 -6.725926 27.195497 0.000000 0.000000 0.000000 24.588488 -6.273984 -0.264613 -23.115780 0.674927 -0.512596 -4.093292 0.880964 10.993092 0.000000 0.000000 0.000000 -22.011136 4.546205 1.079666 19.318932 0.767151 3.750297 4.376350 -1.778494 12.158202 
-0.001044 0.949043 -0.001304 -6.345210 -1.870042 9.615993 0.000000 0.000000 0.000000 1.118368 -1.734428 -7.095697 12.149961 -0.488406 -3.594777 -4.444417 -6.786946 3.809310 0.000000 0.000000 0.000000 4.832336 1.612876 -9.187170 -6.692373 0.776232 -2.255222 5.775617 10.565477 5.087191 0.000000 0.000000 0.000000 4.582790 1.317057 -18.413626 -2.648727 3.203389 34.223201 3.103660 2.260864 -38.149624 0.000000 0.000000 0.000000 7.791934 -6.740201 27.177956 0.000000 0.000000 0.000000 24.597702 -6.262947 -0.252203 -23.140225 0.665890 -0.554492 -4.148963 0.878407 11.059513 0.000000 0.000000 0.000000 -22.004960 4.585631 1.047053 19.248597 0.767976 3.723487 4.382975 -1.813348 12.277271 
-0.001250 0.949013 -0.001410 -6.326300 -1.864018 9.633234 0.000000 0.000000 0.000000 1.097793 -1.737374 -7.111073 12.176724 -0.486001 -3.622741 -4.453955 -6.780438 3.828234 0.000000 0.000000 0.000000 4.831899 1.619300 -9.217888 -6.707216 0.780253 -2.240563 5.762025 10.554814 5.068985 0.000000 0.000000 0.000000 4.609314 1.315496 -18.416645 -2.693436 3.224183 34.211040 3.124587 2.273346 -38.126650 0.000000 0.000000 0.000000 7.809318 -6.743750 27.103029 0.000000 0.000000 0.000000 24.618400 -6.238314 -0.227654 -23.135724 0.662908 -0.567575 -4.194370 0.865423 11.064401 0.000000 0.000000 0.000000 -21.997728 4.598003 1.034322 19.236047 0.773090 3.699597 4.383825 -1.834024 12.343622 
-0.001337 0.948988 -0.001333 -6.296164 -1.869932 9.586815 0.000000 0.000000 0.000000 1.047843 -1.716496 -7.025248 12.213583 -0.477143 -3.699832 -4.464353 -6.776902 3.846405 0.000000 0.000000 0.000000 4.799134 1.606185 -9.157133 -6.703169 0.778572 -2.248987 5.777365 10.607949 5.065773 0.000000 0.000000 0.000000 4.655878 1.307862 -18.380976 -2.767570 3.262551 34.220886 3.155500 2.308752 -38.087517 0.000000 0.000000 0.000000 7.741484 -6.705758 27.179101 0.000000 0.000000 0.000000 24.571094 -6.265203 -0.255667 -23.100906 0.669142 -0.549161 -4.098304 0.900355 11.081353 0.000000 0.000000 0.000000 -22.012619 4.687010 0.966375 19.258180 0.766724 3.722017 4.337436 -1.869852 12.404362 
-0.001491 0.949033 -0.001330 -6.303948 -1.859632 9.570086 0.000000 0.000000 0.000000 1.079968 -1.723150 -7.050672 12.190757 -0.486605 -3.621315 -4.444169 -6.763919 3.820288 0.000000 0.000000 0.000000 4.823041 1.601589 -9.133460 -6.701689 0.776759 -2.263443 5.774902 10.592669 5.070989 0.000000 0.000000 0.000000 4.691739 1.294453 -18.296385 -2.790923 3.265224 34.135118 3.180413 2.337769 -38.060719 0.000000 0.000000 0.000000 7.672177 -6.640259 27.067442 0.000000 0.000000 0.000000 24.601955 -6.264731 -0.246209 -23.103792 0.668860 -0.553460 -4.111802 0.908992 11.136995 0.000000 0.000000 0.000000 -22.016203 4.711543 0.945054 19.222778 0.760583 3.729729 4.408426 -1.845210 12.409394 
-0.001540 0.949077 -0.001299 -6.307590 -1.862745 9.569951 0.000000 0.000000 0.000000 1.078852 -1.714131 -7.011105 12.209182 -0.479272 -3.684223 -4.471121 -6.790656 3.850173 0.000000 0.000000 0.000000 4.831482 1.602967 -9.139399 -6.698615 0.778710 -2.244716 5.784904 10.585932 5.093766 0.000000 0.000000 0.000000 4.703582 1.283855 -18.222350 -2.811555 3.269945 34.074319 3.224243 2.407606 -38.029808 0.000000 0.000000 0.000000 7.618420 -6.599863 27.025444 0.000000 0.000000 0.000000 24.614151 -6.218161 -0.198421 -23.069979 0.682380 -0.510309 -4.195528 0.847256 10.988511 0.000000 0.000000 0.000000 -22.027258 4.719864 0.935185 19.194361 0.741861 3.778753 4.464003 -1.792359 12.309519 
-0.001474 0.949113 -0.001253 -6.292775 -1.852952 9.585189 0.000000 0.000000 0.000000 1.060995 -1.713532 -7.010627 12.214592 -0.475394 -3.713863 -4.472447 -6.768556 3.863433 0.000000 0.000000 0.000000 4.816505 1.604661 -9.148690 -6.711842 0.780130 -2.246366 5.785898 10.564542 5.108159 0.000000 0.000000 0.000000 4.737445 1.273402 -18.161820 -2.845275 3.278222 33.994826 3.216180 2.431449 -38.021364 0.000000 0.000000 0.000000 7.593749 -6.582191 27.003991 0.000000 0.000000 0.000000 24.631008 -6.180018 -0.159299 -23.012157 0.686370 -0.492518 -4.283635 0.801941 10.915821 0.000000 0.000000 0.000000 -22.039179 4.744331 0.915018 19.252522 0.734382 3.815390 4.423056 -1.812670 12.323822 
-0.001404 0.949150 -0.001224 -6.312920 -1.840841 9.604321 0.000000 0.000000 0.000000 1.081553 -1.714599 -7.012885 12.209098 -0.468547 -3.763060 -4.491728 -6.774710 3.890795 0.000000 0.000000 0.000000 4.843010 1.603360 -9.141606 -6.728737 0.776224 -2.300677 5.820174 10.577615 5.165593 0.000000 0.000000 0.000000 4.776088 1.260432 -18.084452 -2.869991 3.280033 33.895279 3.255519 2.465894 -38.007844 0.000000 0.000000 0.000000 7.552650 -6.526378 26.810985 0.000000 0.000000 0.000000 24.604391 -6.204190 -0.181157 -23.001420 0.694719 -0.465577 -4.186682 0.844037 10.960242 0.000000 0.000000 0.000000 -22.056759 4.850007 0.832974 19.282634 0.706985 3.906848 4.395866 -1.823183 12.325004 
-0.001166 0.949225 -0.001299 -6.301491 -1.831784 9.612502 0.000000 0.000000 0.000000 1.031871 -1.713624 -7.014833 12.257079 -0.466147 -3.797290 -4.524275 -6.798189 3.930828 0.000000 0.000000 0.000000 4.818493 1.607974 -9.164782 -6.728352 0.778336 -2.282209 5.821260 10.550102 5.184216 0.000000 0.000000 0.000000 4.823234 1.243620 -17.983455 -2.922159 3.295402 33.796333 3.284740 2.492539 -38.016302 0.000000 0.000000 0.000000 7.500005 -6.474344 26.714914 0.000000 0.000000 0.000000 24.587645 -6.304985 -0.265697 -23.065038 0.682946 -0.507656 -3.992645 0.964109 11.211541 0.000000 0.000000 0.000000 -22.153179 4.908728 0.805267 19.385441 0.704439 3.940055 4.343204 -1.848622 12.343724 
